<?xml version="1.0" standalone="no"?><!DOCTYPE svg PUBLIC "-//W3C//DTD SVG 1.1//EN" "http://www.w3.org/Graphics/SVG/1.1/DTD/svg11.dtd"><svg t="1747818267627" class="icon" viewBox="0 0 1024 1024" version="1.1" xmlns="http://www.w3.org/2000/svg" p-id="5447" xmlns:xlink="http://www.w3.org/1999/xlink" width="200" height="200"><path d="M512.042667 162.901333a265.728 265.728 0 0 1 363.093333 387.712l-222.890667 222.933334h-0.042666L512 913.706667l-310.613333-310.570667-52.48-52.565333c-0.042667 0 0 0 0 0A265.728 265.728 0 0 1 512 162.901333z m140.16 490.026667l162.602666-162.645333a180.394667 180.394667 0 1 0-255.146666-255.146667L512 282.752 464.341333 235.093333a180.394667 180.394667 0 1 0-255.146666 255.146667l52.565333 52.565333L512 793.045333l140.16-140.16z" fill="#D75670" p-id="5448"></path></svg>